<svg width="81" height="47" viewBox="0 0 81 47" fill="none" xmlns="http://www.w3.org/2000/svg">
<path d="M72.8949 1.65404C70.6561 -0.108172 67.9991 2.03503 66.3076 3.60149C62.9214 6.73895 59.5435 10.9444 57.6763 15.3358C57.0919 16.714 55.9243 16.1575 54.4333 15.6576C51.7279 14.7501 48.3269 14.6215 44.7004 15.5062C41.2152 16.3517 37.6117 18.4875 35.6487 20.9293C34.4662 22.3928 32.9735 24.2457 32.2258 26.4374C31.1012 29.7435 30.4469 32.8602 32.5729 37.4653C32.6491 37.6305 34.3293 40.686 35.9559 42.1686C36.3195 42.5008 37.527 43.3656 38.4314 43.6865C40.6992 44.4837 44.477 46.1004 51.2405 43.5352C58.3899 40.8224 60.8831 35.8772 61.9172 31.8797C62.6613 28.9986 61.9582 25.8203 61.9582 25.8203L60.6088 20.7942C60.6053 20.6899 60.5908 20.5874 60.5989 20.4852C60.6769 19.2821 61.4276 18.014 62.0893 17.0751C64.7199 13.3383 68.0052 11.1897 71.5319 8.48533C72.7922 7.51762 74.5485 6.77992 75.0216 5.06873C75.4542 3.49728 73.871 2.42733 72.8949 1.65404V1.65404Z" fill="#ED6C30"/>
<path d="M34.9155 36.6888C33.4838 34.9607 32.7355 31.4105 33.6507 27.8761C36.2248 20.6057 42.7394 16.8704 47.7591 16.6186C49.9399 16.5099 52.407 16.6936 54.3334 17.6068C56.7933 18.7762 58.1229 21.0858 58.4507 22.7071C59.2422 26.6416 58.9489 29.1952 57.2813 32.1256C55.662 34.9716 52.9369 38.1225 48.1532 39.4537C41.7079 41.261 37.5161 39.8327 34.9155 36.6888V36.6888Z" fill="#2F2F2F"/>
<path d="M55.46 23.408C53.1396 17.9748 50.0926 21.5106 46.5102 22.3229C42.9278 23.1352 38.322 20.731 36.2928 24.8665C35.0881 27.3217 34.9314 32.1605 36.0435 34.0383C37.0649 35.7642 40.7494 37.5952 43.4362 36.986C46.123 36.3768 45.8593 35.9427 48.5884 36.9777C52.9299 38.6244 60.1681 29.2829 55.46 23.408Z" fill="#F5F8FA"/>
<path d="M43.3468 24.6888C42.9124 24.3266 42.3973 24.1029 41.8646 23.9922C41.1517 23.8424 40.3929 23.8937 39.6797 24.1085C38.5926 24.441 37.5728 25.1689 37.058 26.2854C36.7266 27.0095 36.6579 27.8275 36.8644 28.5912C37.0945 29.427 37.6641 30.1658 38.5166 30.5397C39.3161 30.8804 40.2473 30.8124 41.1501 30.544C42.0658 30.2621 42.9609 29.7558 43.6156 29.0494C43.9406 28.6927 44.2058 28.2813 44.3551 27.8128C44.5079 27.3437 44.5309 26.8236 44.3907 26.3072L44.3426 26.1518C44.1374 25.5435 43.7843 25.0467 43.3468 24.6888Z" fill="#FCC21B"/>
<path d="M53.3493 28.0802C52.9012 27.7067 52.3699 27.4759 51.8206 27.3617C51.0853 27.2072 50.3026 27.2601 49.567 27.4816C48.4458 27.8246 47.3939 28.5753 46.863 29.7269C46.5212 30.4738 46.4503 31.3174 46.6633 32.1051C46.9006 32.9672 47.4881 33.7292 48.3674 34.1148C49.192 34.4662 50.1524 34.3961 51.0836 34.1193C52.0281 33.8285 52.9512 33.3063 53.6265 32.5777C53.9617 32.2099 54.2353 31.7855 54.3892 31.3023C54.5469 30.8184 54.5705 30.282 54.426 29.7494L54.3764 29.5891C54.1647 28.9618 53.8005 28.4493 53.3493 28.0802Z" fill="#FCC21B"/>
<path d="M72.9752 4.11812C72.8782 4.03726 72.7632 3.98732 72.6443 3.96259C72.4851 3.92915 72.3157 3.9406 72.1565 3.98855C71.9138 4.0628 71.6861 4.2253 71.5712 4.47456C71.4972 4.63624 71.4819 4.81886 71.528 4.98935C71.5793 5.17596 71.7065 5.3409 71.8968 5.42437C72.0753 5.50044 72.2832 5.48526 72.4848 5.42534C72.6892 5.36241 72.889 5.24936 73.0352 5.09165C73.1078 5.01203 73.167 4.92017 73.2003 4.81557C73.2344 4.71084 73.2396 4.59473 73.2083 4.47945L73.1975 4.44474C73.1517 4.30894 73.0729 4.19801 72.9752 4.11812Z" fill="#FCC21B"/>
<path d="M10.0765 35.4209C10.0765 35.0449 9.97306 34.7395 9.76628 34.5045C9.55949 34.2695 9.28456 34.1473 8.94149 34.1379V32.2275C9.45845 32.2322 9.93311 32.3732 10.3655 32.6505C10.7932 32.9278 11.1268 33.3084 11.3665 33.7925C11.6015 34.2719 11.719 34.8029 11.719 35.3857C11.719 36.476 11.3736 37.336 10.6827 37.9658C9.98716 38.5955 9.02843 38.9104 7.80652 38.9104H7.67258C6.49767 38.9104 5.56009 38.5979 4.85984 37.9728C4.1596 37.3478 3.80947 36.4901 3.80947 35.3998C3.80947 34.4457 4.08205 33.6821 4.62721 33.1087C5.16767 32.5306 5.88907 32.2369 6.7914 32.2275V34.1379C6.39663 34.1473 6.07705 34.2695 5.83267 34.5045C5.58359 34.7395 5.45905 35.0496 5.45905 35.435C5.45905 35.9097 5.63294 36.2692 5.98071 36.5136C6.32378 36.7533 6.88304 36.8731 7.65848 36.8731H7.86997C8.65481 36.8731 9.21877 36.7533 9.56184 36.5136C9.90492 36.2739 10.0765 35.9097 10.0765 35.4209Z" fill="#ED6C30"/>
<path d="M7.69373 31.6703C6.93709 31.6703 6.26269 31.5246 5.67053 31.2333C5.07838 30.9419 4.62016 30.5236 4.29589 29.9784C3.97161 29.4286 3.80947 28.7918 3.80947 28.068C3.80947 27.0388 4.12435 26.1999 4.7541 25.5514C5.38385 24.8981 6.23919 24.5339 7.32011 24.4587L7.84177 24.4446C9.01198 24.4446 9.95191 24.7712 10.6616 25.4245C11.3665 26.0777 11.719 26.9542 11.719 28.0539C11.719 29.1537 11.3665 30.0325 10.6616 30.6904C9.95661 31.3437 8.99788 31.6703 7.78538 31.6703H7.69373ZM7.84177 29.633C8.56552 29.633 9.12008 29.4967 9.50545 29.2242C9.88612 28.9516 10.0765 28.5615 10.0765 28.0539C10.0765 27.5605 9.88847 27.1751 9.5125 26.8978C9.13182 26.6205 8.52557 26.4819 7.69373 26.4819C6.98408 26.4819 6.43423 26.6205 6.04415 26.8978C5.65408 27.1751 5.45905 27.5652 5.45905 28.068C5.45905 28.5662 5.65408 28.9516 6.04415 29.2242C6.42953 29.4967 7.02873 29.633 7.84177 29.633Z" fill="#ED6C30"/>
<path d="M7.69373 23.7958C6.93709 23.7958 6.26269 23.6501 5.67053 23.3587C5.07838 23.0673 4.62016 22.6491 4.29589 22.1039C3.97161 21.554 3.80947 20.9172 3.80947 20.1935C3.80947 19.1643 4.12435 18.3254 4.7541 17.6768C5.38385 17.0236 6.23919 16.6594 7.32011 16.5842L7.84177 16.5701C9.01198 16.5701 9.95191 16.8967 10.6616 17.5499C11.3665 18.2032 11.719 19.0797 11.719 20.1794C11.719 21.2791 11.3665 22.1579 10.6616 22.8159C9.95661 23.4692 8.99788 23.7958 7.78537 23.7958H7.69373ZM7.84177 21.7585C8.56552 21.7585 9.12007 21.6222 9.50545 21.3496C9.88612 21.077 10.0765 20.687 10.0765 20.1794C10.0765 19.6859 9.88847 19.3006 9.5125 19.0233C9.13182 18.746 8.52557 18.6074 7.69373 18.6074C6.98408 18.6074 6.43423 18.746 6.04415 19.0233C5.65408 19.3006 5.45905 19.6906 5.45905 20.1935C5.45905 20.6917 5.65408 21.077 6.04415 21.3496C6.42953 21.6222 7.02873 21.7585 7.84177 21.7585Z" fill="#ED6C30"/>
<path d="M8.51852 12.8336L9.25166 13.5667H11.578V15.604L0.75 15.604L0.75 13.5667L6.7491 13.5667L6.24154 13.1719L3.95046 11.2192L3.95046 8.77307L7.12977 11.5294L11.578 8.53339V10.8738L8.51852 12.8336Z" fill="#ED6C30"/>
<path d="M33.4514 28.6807C33.4514 32.1718 32.7062 34.8976 31.2157 36.858C29.7253 38.805 27.644 39.7785 24.9719 39.7785C22.6087 39.7785 20.7221 38.8722 19.3122 37.0595L19.0503 39.3757H13.8136V8.4386H19.6344V19.5365C20.9772 17.9655 22.7429 17.1799 24.9316 17.1799C27.5903 17.1799 29.6716 18.1602 31.1754 20.1206C32.6928 22.0676 33.4514 24.8135 33.4514 28.3584V28.6807ZM27.6306 28.2577C27.6306 26.0556 27.2814 24.451 26.5832 23.4439C25.885 22.4234 24.8443 21.9132 23.4613 21.9132C21.6083 21.9132 20.3327 22.6718 19.6344 24.1891V32.7895C20.3461 34.3202 21.6352 35.0856 23.5016 35.0856C25.3814 35.0856 26.6168 34.1591 27.2076 32.3061C27.4896 31.4199 27.6306 30.0704 27.6306 28.2577Z" fill="white"/>
<path d="M66.8777 30.6344L64.783 32.7291V39.3757H58.9621V8.4386H64.783V25.5789L65.9109 24.1287L71.49 17.5828H78.4791L70.6038 26.6665L79.1639 39.3757H72.477L66.8777 30.6344Z" fill="white"/>
</svg>
